<svg id="visual" viewBox="0 0 960 540" width="960" height="540" xmlns="http://www.w3.org/2000/svg" xmlns:xlink="http://www.w3.org/1999/xlink" version="1.1"><g stroke-width="1" stroke-linejoin="bevel"><path d="M490.1 234.5L568.8 252L558.9 214.5Z" fill="#0d2231" stroke="#0d2231"></path><path d="M490.1 234.5L533.9 299L568.8 252Z" fill="#db5461" stroke="#db5461"></path><path d="M623.8 231.5L558.8 177L558.9 214.5Z" fill="#020709" stroke="#020709"></path><path d="M558.9 214.5L558.8 177L490.1 234.5Z" fill="#493a67" stroke="#493a67"></path><path d="M490.1 234.5L516.9 315.5L533.9 299Z" fill="#884176" stroke="#884176"></path><path d="M578.8 338.5L623.8 231.5L568.8 252Z" fill="#c4496d" stroke="#c4496d"></path><path d="M568.8 252L623.8 231.5L558.9 214.5Z" fill="#0d2231" stroke="#0d2231"></path><path d="M578.8 338.5L568.8 252L533.9 299Z" fill="#09171e" stroke="#09171e"></path><path d="M516.9 315.5L578.8 338.5L533.9 299Z" fill="#db5461" stroke="#db5461"></path><path d="M490.1 234.5L410.2 311L516.9 315.5Z" fill="#2e3458" stroke="#2e3458"></path><path d="M516.9 315.5L498.9 378L578.8 338.5Z" fill="#09171e" stroke="#09171e"></path><path d="M465.1 376.5L498.9 378L516.9 315.5Z" fill="#493a67" stroke="#493a67"></path><path d="M410.2 311L410.1 315L516.9 315.5Z" fill="#884176" stroke="#884176"></path><path d="M390.2 197.5L398.2 302.5L490.1 234.5Z" fill="#020709" stroke="#020709"></path><path d="M490.1 234.5L398.2 302.5L410.2 311Z" fill="#2e3458" stroke="#2e3458"></path><path d="M410.2 311L398.2 302.5L410.1 315Z" fill="#192b45" stroke="#192b45"></path><path d="M422.1 108L390.2 197.5L490.1 234.5Z" fill="#884176" stroke="#884176"></path><path d="M410.1 315L465.1 376.5L516.9 315.5Z" fill="#0d2231" stroke="#0d2231"></path><path d="M400.1 386L465.1 376.5L410.1 315Z" fill="#0d2231" stroke="#0d2231"></path><path d="M527.9 55.5L512.9 92L622.8 34.5Z" fill="#09171e" stroke="#09171e"></path><path d="M558.8 177L512.9 92L490.1 234.5Z" fill="#683e72" stroke="#683e72"></path><path d="M578.8 338.5L683.6 263L623.8 231.5Z" fill="#192b45" stroke="#192b45"></path><path d="M623.8 231.5L687.6 164L558.8 177Z" fill="#884176" stroke="#884176"></path><path d="M549.9 445.5L598.8 396L498.9 378Z" fill="#493a67" stroke="#493a67"></path><path d="M498.9 378L598.8 396L578.8 338.5Z" fill="#020709" stroke="#020709"></path><path d="M578.8 338.5L675.6 360.5L683.6 263Z" fill="#020709" stroke="#020709"></path><path d="M512.9 92L422.1 108L490.1 234.5Z" fill="#020709" stroke="#020709"></path><path d="M705.6 177.5L687.6 164L623.8 231.5Z" fill="#db5461" stroke="#db5461"></path><path d="M512.9 92L417.1 102.5L422.1 108Z" fill="#c4496d" stroke="#c4496d"></path><path d="M422.1 108L363.2 108.5L390.2 197.5Z" fill="#884176" stroke="#884176"></path><path d="M622.8 34.5L512.9 92L558.8 177Z" fill="#a74475" stroke="#a74475"></path><path d="M512.9 92L421.1 0L417.1 102.5Z" fill="#493a67" stroke="#493a67"></path><path d="M683.6 263L705.6 177.5L623.8 231.5Z" fill="#a74475" stroke="#a74475"></path><path d="M598.8 396L675.6 360.5L578.8 338.5Z" fill="#683e72" stroke="#683e72"></path><path d="M683.6 263L733.5 207.5L705.6 177.5Z" fill="#192b45" stroke="#192b45"></path><path d="M598.8 396L676.6 362L675.6 360.5Z" fill="#683e72" stroke="#683e72"></path><path d="M675.6 360.5L694.5 366L683.6 263Z" fill="#683e72" stroke="#683e72"></path><path d="M296.4 356.5L400.1 386L398.2 302.5Z" fill="#09171e" stroke="#09171e"></path><path d="M398.2 302.5L400.1 386L410.1 315Z" fill="#192b45" stroke="#192b45"></path><path d="M471.1 438.5L549.9 445.5L498.9 378Z" fill="#493a67" stroke="#493a67"></path><path d="M312.4 167.5L336.4 273L390.2 197.5Z" fill="#2e3458" stroke="#2e3458"></path><path d="M390.2 197.5L336.4 273L398.2 302.5Z" fill="#0d2231" stroke="#0d2231"></path><path d="M471.1 438.5L498.9 378L465.1 376.5Z" fill="#0d2231" stroke="#0d2231"></path><path d="M635.6 449.5L694.5 366L676.6 362Z" fill="#020709" stroke="#020709"></path><path d="M421.1 0L395.2 88L417.1 102.5Z" fill="#09171e" stroke="#09171e"></path><path d="M417.1 102.5L363.2 108.5L422.1 108Z" fill="#db5461" stroke="#db5461"></path><path d="M400.1 386L471.1 438.5L465.1 376.5Z" fill="#020709" stroke="#020709"></path><path d="M635.6 449.5L676.6 362L598.8 396Z" fill="#0d2231" stroke="#0d2231"></path><path d="M676.6 362L694.5 366L675.6 360.5Z" fill="#493a67" stroke="#493a67"></path><path d="M782.5 272L733.5 207.5L683.6 263Z" fill="#683e72" stroke="#683e72"></path><path d="M395.2 88L363.2 108.5L417.1 102.5Z" fill="#2e3458" stroke="#2e3458"></path><path d="M848.3 207.5L744.5 180L733.5 207.5Z" fill="#db5461" stroke="#db5461"></path><path d="M733.5 207.5L744.5 180L705.6 177.5Z" fill="#0d2231" stroke="#0d2231"></path><path d="M705.6 177.5L727.5 75.5L687.6 164Z" fill="#884176" stroke="#884176"></path><path d="M687.6 164L622.8 34.5L558.8 177Z" fill="#020709" stroke="#020709"></path><path d="M633.6 26.5L622.8 34.5L727.5 75.5Z" fill="#a74475" stroke="#a74475"></path><path d="M363.2 108.5L312.4 167.5L390.2 197.5Z" fill="#2e3458" stroke="#2e3458"></path><path d="M549.9 445.5L635.6 449.5L598.8 396Z" fill="#493a67" stroke="#493a67"></path><path d="M471.1 438.5L558.8 478.5L549.9 445.5Z" fill="#192b45" stroke="#192b45"></path><path d="M549.9 445.5L558.8 478.5L635.6 449.5Z" fill="#db5461" stroke="#db5461"></path><path d="M727.5 75.5L622.8 34.5L687.6 164Z" fill="#c4496d" stroke="#c4496d"></path><path d="M563.8 0L538.9 0L527.9 55.5Z" fill="#192b45" stroke="#192b45"></path><path d="M527.9 55.5L421.1 0L512.9 92Z" fill="#c4496d" stroke="#c4496d"></path><path d="M563.8 0L527.9 55.5L622.8 34.5Z" fill="#683e72" stroke="#683e72"></path><path d="M633.6 26.5L563.8 0L622.8 34.5Z" fill="#683e72" stroke="#683e72"></path><path d="M363.2 108.5L301.4 146L312.4 167.5Z" fill="#884176" stroke="#884176"></path><path d="M210.5 288L296.4 356.5L336.4 273Z" fill="#493a67" stroke="#493a67"></path><path d="M317.4 95.5L301.4 146L363.2 108.5Z" fill="#493a67" stroke="#493a67"></path><path d="M296.4 356.5L362.2 426L400.1 386Z" fill="#2e3458" stroke="#2e3458"></path><path d="M400.1 386L362.2 426L471.1 438.5Z" fill="#a74475" stroke="#a74475"></path><path d="M471.1 438.5L475.9 540L558.8 478.5Z" fill="#683e72" stroke="#683e72"></path><path d="M296.4 356.5L398.2 302.5L336.4 273Z" fill="#db5461" stroke="#db5461"></path><path d="M780.5 320.5L683.6 263L694.5 366Z" fill="#884176" stroke="#884176"></path><path d="M780.5 320.5L782.5 272L683.6 263Z" fill="#2e3458" stroke="#2e3458"></path><path d="M329.2 0L317.4 95.5L395.2 88Z" fill="#683e72" stroke="#683e72"></path><path d="M395.2 88L317.4 95.5L363.2 108.5Z" fill="#493a67" stroke="#493a67"></path><path d="M791.3 98.5L727.5 75.5L744.5 180Z" fill="#020709" stroke="#020709"></path><path d="M744.5 180L727.5 75.5L705.6 177.5Z" fill="#683e72" stroke="#683e72"></path><path d="M268.5 174L336.4 273L312.4 167.5Z" fill="#020709" stroke="#020709"></path><path d="M785.3 336.5L780.5 320.5L694.5 366Z" fill="#884176" stroke="#884176"></path><path d="M538.9 0L421.1 0L527.9 55.5Z" fill="#09171e" stroke="#09171e"></path><path d="M160.7 81.5L268.5 174L301.4 146Z" fill="#db5461" stroke="#db5461"></path><path d="M301.4 146L268.5 174L312.4 167.5Z" fill="#192b45" stroke="#192b45"></path><path d="M827.3 377L785.3 336.5L788.3 458.5Z" fill="#a74475" stroke="#a74475"></path><path d="M780.5 320.5L805.3 273L782.5 272Z" fill="#db5461" stroke="#db5461"></path><path d="M843.2 323.5L805.3 273L780.5 320.5Z" fill="#db5461" stroke="#db5461"></path><path d="M782.5 272L848.3 207.5L733.5 207.5Z" fill="#683e72" stroke="#683e72"></path><path d="M752.5 0L700.6 0L727.5 75.5Z" fill="#493a67" stroke="#493a67"></path><path d="M727.5 75.5L700.6 0L633.6 26.5Z" fill="#0d2231" stroke="#0d2231"></path><path d="M633.6 26.5L700.6 0L563.8 0Z" fill="#020709" stroke="#020709"></path><path d="M805.3 109L791.3 98.5L744.5 180Z" fill="#884176" stroke="#884176"></path><path d="M466.1 540L475.9 540L471.1 438.5Z" fill="#192b45" stroke="#192b45"></path><path d="M558.8 478.5L603.8 540L635.6 449.5Z" fill="#192b45" stroke="#192b45"></path><path d="M296.4 356.5L289.4 427L362.2 426Z" fill="#683e72" stroke="#683e72"></path><path d="M362.2 426L466.1 540L471.1 438.5Z" fill="#db5461" stroke="#db5461"></path><path d="M265.5 437L289.4 427L211.5 377.5Z" fill="#683e72" stroke="#683e72"></path><path d="M289.4 427L332.2 473.5L362.2 426Z" fill="#09171e" stroke="#09171e"></path><path d="M332.2 473.5L466.1 540L362.2 426Z" fill="#192b45" stroke="#192b45"></path><path d="M848.3 207.5L805.3 109L744.5 180Z" fill="#2e3458" stroke="#2e3458"></path><path d="M791.3 98.5L752.5 0L727.5 75.5Z" fill="#db5461" stroke="#db5461"></path><path d="M475.9 540L603.8 540L558.8 478.5Z" fill="#192b45" stroke="#192b45"></path><path d="M788.3 458.5L785.3 336.5L694.5 366Z" fill="#493a67" stroke="#493a67"></path><path d="M163.7 161.5L225.5 189.5L160.7 81.5Z" fill="#a74475" stroke="#a74475"></path><path d="M268.5 174L225.5 189.5L336.4 273Z" fill="#884176" stroke="#884176"></path><path d="M421.1 0L329.2 0L395.2 88Z" fill="#0d2231" stroke="#0d2231"></path><path d="M160.7 81.5L225.5 189.5L268.5 174Z" fill="#493a67" stroke="#493a67"></path><path d="M805.3 273L848.3 207.5L782.5 272Z" fill="#db5461" stroke="#db5461"></path><path d="M843.2 323.5L848.3 207.5L805.3 273Z" fill="#db5461" stroke="#db5461"></path><path d="M225.5 189.5L210.5 288L336.4 273Z" fill="#884176" stroke="#884176"></path><path d="M843.2 359L843.2 323.5L785.3 336.5Z" fill="#493a67" stroke="#493a67"></path><path d="M785.3 336.5L843.2 323.5L780.5 320.5Z" fill="#2e3458" stroke="#2e3458"></path><path d="M747.5 488.5L694.5 366L635.6 449.5Z" fill="#020709" stroke="#020709"></path><path d="M289.4 427L265.4 449.5L332.2 473.5Z" fill="#db5461" stroke="#db5461"></path><path d="M211.5 377.5L289.4 427L296.4 356.5Z" fill="#020709" stroke="#020709"></path><path d="M603.8 540L668.6 540L635.6 449.5Z" fill="#0d2231" stroke="#0d2231"></path><path d="M668.6 540L747.5 488.5L635.6 449.5Z" fill="#09171e" stroke="#09171e"></path><path d="M802.3 0L752.5 0L791.3 98.5Z" fill="#0d2231" stroke="#0d2231"></path><path d="M913.2 313L843.2 359L960 392Z" fill="#2e3458" stroke="#2e3458"></path><path d="M827.3 377L843.2 359L785.3 336.5Z" fill="#db5461" stroke="#db5461"></path><path d="M960 248.5L894.2 159.5L848.3 207.5Z" fill="#683e72" stroke="#683e72"></path><path d="M188.5 503.5L265.4 449.5L265.5 437Z" fill="#db5461" stroke="#db5461"></path><path d="M265.5 437L265.4 449.5L289.4 427Z" fill="#020709" stroke="#020709"></path><path d="M332.2 473.5L332.2 540L466.1 540Z" fill="#884176" stroke="#884176"></path><path d="M747.5 488.5L788.3 458.5L694.5 366Z" fill="#0d2231" stroke="#0d2231"></path><path d="M210.5 288L211.5 377.5L296.4 356.5Z" fill="#2e3458" stroke="#2e3458"></path><path d="M329.2 0L267.4 0L317.4 95.5Z" fill="#0d2231" stroke="#0d2231"></path><path d="M254.4 540L332.2 473.5L265.4 449.5Z" fill="#493a67" stroke="#493a67"></path><path d="M254.4 540L332.2 540L332.2 473.5Z" fill="#192b45" stroke="#192b45"></path><path d="M668.6 540L730.5 540L747.5 488.5Z" fill="#c4496d" stroke="#c4496d"></path><path d="M747.5 488.5L815.3 540L788.3 458.5Z" fill="#0d2231" stroke="#0d2231"></path><path d="M857.2 40.5L802.3 0L791.3 98.5Z" fill="#09171e" stroke="#09171e"></path><path d="M857.2 40.5L791.3 98.5L805.3 109Z" fill="#020709" stroke="#020709"></path><path d="M210.5 288L132.7 372L211.5 377.5Z" fill="#683e72" stroke="#683e72"></path><path d="M225.5 189.5L161.7 276L210.5 288Z" fill="#a74475" stroke="#a74475"></path><path d="M163.7 161.5L161.7 276L225.5 189.5Z" fill="#2e3458" stroke="#2e3458"></path><path d="M913.2 313L848.3 207.5L843.2 323.5Z" fill="#192b45" stroke="#192b45"></path><path d="M848.3 207.5L894.2 159.5L805.3 109Z" fill="#020709" stroke="#020709"></path><path d="M160.7 81.5L301.4 146L317.4 95.5Z" fill="#c4496d" stroke="#c4496d"></path><path d="M928.2 99L857.2 40.5L805.3 109Z" fill="#c4496d" stroke="#c4496d"></path><path d="M873.2 433.5L843.2 359L827.3 377Z" fill="#a74475" stroke="#a74475"></path><path d="M843.2 359L913.2 313L843.2 323.5Z" fill="#2e3458" stroke="#2e3458"></path><path d="M873.2 433.5L827.3 377L788.3 458.5Z" fill="#c4496d" stroke="#c4496d"></path><path d="M815.3 540L873.2 433.5L788.3 458.5Z" fill="#c4496d" stroke="#c4496d"></path><path d="M267.4 0L197.5 23.5L317.4 95.5Z" fill="#c4496d" stroke="#c4496d"></path><path d="M197.5 23.5L160.7 81.5L317.4 95.5Z" fill="#192b45" stroke="#192b45"></path><path d="M163.7 161.5L117.8 235L161.7 276Z" fill="#db5461" stroke="#db5461"></path><path d="M188.5 503.5L254.4 540L265.4 449.5Z" fill="#2e3458" stroke="#2e3458"></path><path d="M188.5 503.5L265.5 437L211.5 377.5Z" fill="#020709" stroke="#020709"></path><path d="M122.7 149L117.8 235L163.7 161.5Z" fill="#0d2231" stroke="#0d2231"></path><path d="M161.7 276L132.7 372L210.5 288Z" fill="#db5461" stroke="#db5461"></path><path d="M730.5 540L815.3 540L747.5 488.5Z" fill="#c4496d" stroke="#c4496d"></path><path d="M160.7 81.5L122.7 149L163.7 161.5Z" fill="#db5461" stroke="#db5461"></path><path d="M110.7 353.5L132.7 372L161.7 276Z" fill="#db5461" stroke="#db5461"></path><path d="M960 126L928.2 99L894.2 159.5Z" fill="#0d2231" stroke="#0d2231"></path><path d="M894.2 159.5L928.2 99L805.3 109Z" fill="#884176" stroke="#884176"></path><path d="M267.4 0L175.5 0L197.5 23.5Z" fill="#a74475" stroke="#a74475"></path><path d="M197.5 23.5L141.7 0L160.7 81.5Z" fill="#2e3458" stroke="#2e3458"></path><path d="M160.7 81.5L101.8 86.5L122.7 149Z" fill="#683e72" stroke="#683e72"></path><path d="M105.8 467.5L188.5 503.5L211.5 377.5Z" fill="#493a67" stroke="#493a67"></path><path d="M960 259L960 248.5L913.2 313Z" fill="#192b45" stroke="#192b45"></path><path d="M913.2 313L960 248.5L848.3 207.5Z" fill="#09171e" stroke="#09171e"></path><path d="M960 316.5L960 259L913.2 313Z" fill="#683e72" stroke="#683e72"></path><path d="M71.8 295.5L110.7 353.5L161.7 276Z" fill="#a74475" stroke="#a74475"></path><path d="M132.7 372L105.8 467.5L211.5 377.5Z" fill="#a74475" stroke="#a74475"></path><path d="M71.8 295.5L161.7 276L117.8 235Z" fill="#493a67" stroke="#493a67"></path><path d="M960 392L960 316.5L913.2 313Z" fill="#a74475" stroke="#a74475"></path><path d="M960 392L843.2 359L873.2 433.5Z" fill="#c4496d" stroke="#c4496d"></path><path d="M142.7 540L204.5 540L188.5 503.5Z" fill="#09171e" stroke="#09171e"></path><path d="M188.5 503.5L204.5 540L254.4 540Z" fill="#683e72" stroke="#683e72"></path><path d="M960 248.5L960 126L894.2 159.5Z" fill="#09171e" stroke="#09171e"></path><path d="M141.7 0L101.8 86.5L160.7 81.5Z" fill="#493a67" stroke="#493a67"></path><path d="M51.8 234.5L71.8 295.5L117.8 235Z" fill="#09171e" stroke="#09171e"></path><path d="M960 485.5L960 392L873.2 433.5Z" fill="#192b45" stroke="#192b45"></path><path d="M815.3 540L875.2 540L873.2 433.5Z" fill="#db5461" stroke="#db5461"></path><path d="M175.5 0L141.7 0L197.5 23.5Z" fill="#a74475" stroke="#a74475"></path><path d="M928.2 99L918.2 0L857.2 40.5Z" fill="#2e3458" stroke="#2e3458"></path><path d="M857.2 40.5L918.2 0L802.3 0Z" fill="#884176" stroke="#884176"></path><path d="M960 80.5L918.2 0L928.2 99Z" fill="#0d2231" stroke="#0d2231"></path><path d="M960 126L960 80.5L928.2 99Z" fill="#c4496d" stroke="#c4496d"></path><path d="M51.8 234.5L117.8 235L122.7 149Z" fill="#683e72" stroke="#683e72"></path><path d="M110.7 353.5L78.8 384L132.7 372Z" fill="#192b45" stroke="#192b45"></path><path d="M71.8 295.5L78.8 384L110.7 353.5Z" fill="#2e3458" stroke="#2e3458"></path><path d="M34.8 118L51.8 234.5L122.7 149Z" fill="#0d2231" stroke="#0d2231"></path><path d="M71.8 295.5L0 369.5L78.8 384Z" fill="#683e72" stroke="#683e72"></path><path d="M78.8 384L105.8 467.5L132.7 372Z" fill="#020709" stroke="#020709"></path><path d="M105.7 515.5L142.7 540L188.5 503.5Z" fill="#884176" stroke="#884176"></path><path d="M960 80.5L960 0L918.2 0Z" fill="#a74475" stroke="#a74475"></path><path d="M875.2 540L960 485.5L873.2 433.5Z" fill="#192b45" stroke="#192b45"></path><path d="M141.7 0L94.8 0L101.8 86.5Z" fill="#493a67" stroke="#493a67"></path><path d="M101.8 86.5L34.8 118L122.7 149Z" fill="#0d2231" stroke="#0d2231"></path><path d="M67.8 540L105.7 515.5L105.8 467.5Z" fill="#493a67" stroke="#493a67"></path><path d="M105.8 467.5L105.7 515.5L188.5 503.5Z" fill="#683e72" stroke="#683e72"></path><path d="M0 31.5L34.8 118L101.8 86.5Z" fill="#020709" stroke="#020709"></path><path d="M875.2 540L960 540L960 485.5Z" fill="#493a67" stroke="#493a67"></path><path d="M0 174L0 213.5L51.8 234.5Z" fill="#09171e" stroke="#09171e"></path><path d="M51.8 234.5L0 285L71.8 295.5Z" fill="#020709" stroke="#020709"></path><path d="M78.8 384L0 402L105.8 467.5Z" fill="#020709" stroke="#020709"></path><path d="M0 213.5L0 285L51.8 234.5Z" fill="#192b45" stroke="#192b45"></path><path d="M34.8 118L0 174L51.8 234.5Z" fill="#192b45" stroke="#192b45"></path><path d="M0 31.5L0 174L34.8 118Z" fill="#a74475" stroke="#a74475"></path><path d="M0 285L0 369.5L71.8 295.5Z" fill="#2e3458" stroke="#2e3458"></path><path d="M0 489.5L67.8 540L105.8 467.5Z" fill="#020709" stroke="#020709"></path><path d="M105.7 515.5L67.8 540L142.7 540Z" fill="#a74475" stroke="#a74475"></path><path d="M0 369.5L0 402L78.8 384Z" fill="#a74475" stroke="#a74475"></path><path d="M94.8 0L0 31.5L101.8 86.5Z" fill="#884176" stroke="#884176"></path><path d="M94.8 0L0 0L0 31.5Z" fill="#683e72" stroke="#683e72"></path><path d="M0 402L0 489.5L105.8 467.5Z" fill="#db5461" stroke="#db5461"></path><path d="M0 489.5L0 540L67.8 540Z" fill="#884176" stroke="#884176"></path></g></svg>